<svg xmlns="http://www.w3.org/2000/svg" viewBox="0 0 1080 1080">
  <defs>
    <style>
      .cls-1 {
        fill: #fff;
      }

      .cls-2 {
        fill: none;
        stroke: #000;
        stroke-linecap: round;
        stroke-linejoin: round;
        stroke-width: 2.95px;
      }
    </style>
  </defs>
  <title>bg-Artboard 1</title>
  <g id="background">
    <rect y="-420" width="1080" height="1920"/>
  </g>
  <g id="Layer_4" data-name="Layer 4">
    <g>
      <g>
        <ellipse class="cls-1" cx="398.74" cy="406.73" rx="141.26" ry="159.06"/>
        <ellipse cx="398.74" cy="406.73" rx="62.91" ry="70.84"/>
        <polygon class="cls-1" points="398.74 406.33 465.49 381.75 465.17 431.75 398.74 406.33"/>
      </g>
      <g>
        <ellipse class="cls-1" cx="681.26" cy="406.73" rx="141.26" ry="159.06"/>
        <ellipse cx="681.26" cy="406.73" rx="62.91" ry="70.84"/>
        <polygon class="cls-1" points="681.26 406.33 748 381.75 747.69 431.75 681.26 406.33"/>
      </g>
    </g>
    <g>
      <path class="cls-1" d="M540,573.23c-11.58,0-28.07-6-41-15-8.76-6.06-23.46-18.66-23.46-35,0-27,0-50.3,53.4-50.3,3.45,0,7.13.1,10.94.3H540c29.86,0,47.85,4.61,56.63,14.51,7.87,8.88,7.87,21.81,7.87,35.49,0,16.35-14.7,28.95-23.46,35C568.07,567.21,551.58,573.23,540,573.23Z"/>
      <path d="M528.91,469.93v6h0c3.39,0,7,.1,10.78.29H540c28.54,0,46.33,4.42,54.38,13.5,7.12,8,7.12,20.4,7.12,33.5,0,10.95-8.08,22.81-22.16,32.54C566.83,564.42,551,570.23,540,570.23s-26.83-5.81-39.34-14.46c-14.08-9.73-22.16-21.59-22.16-32.54,0-12.3,0-25,6.09-33.48,6.69-9.3,21.18-13.82,44.31-13.82v-6m0,0c-55.95,0-56.4,25.74-56.4,53.3,0,29.27,43.5,53,67.5,53s67.5-23.73,67.5-53-.5-53-67.5-53c-3.93-.2-7.62-.3-11.1-.3Z"/>
    </g>
    <path class="cls-1" d="M540.5,755.73C510.56,696.86,310,707.8,310,813.61s103,191.58,230,191.58,230-85.77,230-191.58S570.43,696.86,540.5,755.73Z"/>
    <path class="cls-2" d="M421.15,721.56c-32.65,35.94-40.23,214.61,0,254.84"/>
    <line class="cls-2" x1="540.5" y1="755.5" x2="540.5" y2="1005.5"/>
    <path class="cls-2" d="M659.39,721.56c55,55,38.3,217.9,0,256.21"/>
  </g>
</svg>
