<svg xmlns="http://www.w3.org/2000/svg" viewBox="0 0 1080 1080">
  <defs>
    <style>
      .cls-1, .cls-2 {
        fill: #fff;
      }

      .cls-2, .cls-3, .cls-4 {
        stroke: #000;
        stroke-miterlimit: 10;
      }

      .cls-2, .cls-4 {
        stroke-width: 6px;
      }

      .cls-3, .cls-4 {
        fill: none;
      }

      .cls-3 {
        stroke-width: 5.4px;
      }
    </style>
  </defs>
  <title>bg-Artboard 1 copy 2</title>
  <g id="background">
    <rect y="-420" width="1080" height="1920"/>
  </g>
  <g id="Layer_4" data-name="Layer 4">
    <g>
      <g>
        <ellipse class="cls-1" cx="681.5" cy="406.73" rx="140.76" ry="158.56"/>
        <path d="M681.5,248.67c37.44,0,72.65,16.43,99.14,46.25s41.12,69.57,41.12,111.81-14.61,81.95-41.12,111.81-61.7,46.25-99.14,46.25-72.65-16.42-99.14-46.25S541.24,449,541.24,406.73s14.61-82,41.12-111.81,61.7-46.25,99.14-46.25m0-1c-78,0-141.26,71.21-141.26,159.06S603.49,565.79,681.5,565.79s141.26-71.21,141.26-159.06S759.51,247.67,681.5,247.67Z"/>
      </g>
      <path class="cls-2" d="M540,406.73c0,72,283,77,283,0"/>
      <path class="cls-3" d="M779.25,447s1.32,24.78,22.54,30.28"/>
      <path class="cls-3" d="M752.11,453.87s3.63,29.72,27,41.86"/>
      <path class="cls-3" d="M801.79,438.62s1.59,12.35,15.65,11.48"/>
      <g>
        <path class="cls-3" d="M779.25,447s1.32,24.78,22.54,30.28"/>
        <path class="cls-3" d="M752.11,453.87s3.63,29.72,27,41.86"/>
        <path class="cls-3" d="M801.79,438.62s1.59,12.35,15.65,11.48"/>
      </g>
    </g>
    <path class="cls-4" d="M540,406.73c0,72,283,77,283,0"/>
    <ellipse class="cls-1" cx="398.74" cy="406.73" rx="141.26" ry="159.06"/>
    <ellipse cx="398.74" cy="406.73" rx="62.91" ry="70.84"/>
    <polygon class="cls-1" points="398.74 406.33 465.49 381.75 465.17 431.75 398.74 406.33"/>
    <g>
      <path class="cls-1" d="M540,573.23c-11.58,0-28.07-6-41-15-8.76-6.06-23.46-18.66-23.46-35,0-27,0-50.3,53.4-50.3,3.45,0,7.13.1,10.94.3H540c29.86,0,47.85,4.61,56.63,14.51,7.87,8.88,7.87,21.81,7.87,35.49,0,16.35-14.7,28.95-23.46,35C568.07,567.21,551.58,573.23,540,573.23Z"/>
      <path d="M528.91,469.93v6h0c3.39,0,7,.1,10.78.29H540c28.54,0,46.33,4.42,54.38,13.5,7.12,8,7.12,20.4,7.12,33.5,0,10.95-8.08,22.81-22.16,32.54C566.83,564.42,551,570.23,540,570.23s-26.83-5.81-39.34-14.46c-14.08-9.73-22.16-21.59-22.16-32.54,0-12.3,0-25,6.09-33.48,6.69-9.3,21.18-13.82,44.31-13.82v-6m0,0c-55.95,0-56.4,25.74-56.4,53.3,0,29.27,43.5,53,67.5,53s67.5-23.73,67.5-53-.5-53-67.5-53c-3.93-.2-7.62-.3-11.1-.3Z"/>
    </g>
    <g>
      <path class="cls-1" d="M314,909.77c0,44.63,460,101.37,460-114.59S544,897.1,314,909.77Z"/>
      <g>
        <path class="cls-3" d="M670.44,742.81C690,769,694,901.67,670.44,925.26"/>
        <path class="cls-3" d="M575.62,801.55c16.38,14.45,20.64,125.16,0,145.8"/>
        <path class="cls-3" d="M488.52,853.18c7.48,15.82,12,86.24,0,98.28"/>
        <path class="cls-3" d="M398.4,892.82c2.6,15.18,3.4,36.74,0,50.46"/>
      </g>
    </g>
  </g>
</svg>
