<svg xmlns="http://www.w3.org/2000/svg" viewBox="0 0 1080 1080">
  <defs>
    <style>
      .cls-1 {
        fill: #fff;
      }

      .cls-2 {
        fill: none;
        stroke: #000;
        stroke-miterlimit: 10;
        stroke-width: 6px;
      }
    </style>
  </defs>
  <title>bg-Artboard 1 copy 6</title>
  <g id="background">
    <rect y="-420" width="1080" height="1920"/>
  </g>
  <g id="Layer_4" data-name="Layer 4">
    <g>
      <g>
        <ellipse class="cls-1" cx="398.74" cy="406.73" rx="141.26" ry="159.06"/>
        <ellipse cx="398.74" cy="406.73" rx="62.91" ry="70.84"/>
        <polygon class="cls-1" points="398.74 406.33 465.49 381.75 465.17 431.75 398.74 406.33"/>
      </g>
      <g>
        <ellipse class="cls-1" cx="681.26" cy="406.73" rx="141.26" ry="159.06"/>
        <ellipse cx="681.26" cy="406.73" rx="62.91" ry="70.84"/>
        <polygon class="cls-1" points="681.26 406.33 748 381.75 747.69 431.75 681.26 406.33"/>
      </g>
    </g>
    <g>
      <path class="cls-1" d="M540,573.23c-11.58,0-28.07-6-41-15-8.76-6.06-23.46-18.66-23.46-35,0-27,0-50.3,53.4-50.3,3.45,0,7.13.1,10.94.3H540c29.86,0,47.85,4.61,56.63,14.51,7.87,8.88,7.87,21.81,7.87,35.49,0,16.35-14.7,28.95-23.46,35C568.07,567.21,551.58,573.23,540,573.23Z"/>
      <path d="M528.91,469.93v6h0c3.39,0,7,.1,10.78.29H540c28.54,0,46.33,4.42,54.38,13.5,7.12,8,7.12,20.4,7.12,33.5,0,10.95-8.08,22.81-22.16,32.54C566.83,564.42,551,570.23,540,570.23s-26.83-5.81-39.34-14.46c-14.08-9.73-22.16-21.59-22.16-32.54,0-12.3,0-25,6.09-33.48,6.69-9.3,21.18-13.82,44.31-13.82v-6m0,0c-55.95,0-56.4,25.74-56.4,53.3,0,29.27,43.5,53,67.5,53s67.5-23.73,67.5-53-.5-53-67.5-53c-3.93-.2-7.62-.3-11.1-.3Z"/>
    </g>
    <path class="cls-1" d="M314,764.07c0,135.23,460,125.37,460-5.82,0-64-109.68.42-221.92-.18C434.45,757.45,314,694.88,314,764.07Z"/>
    <g>
      <path class="cls-2" d="M670.44,701.81C690,728,694,860.67,670.44,884.26"/>
      <path class="cls-2" d="M575.62,720.13c16.38,14.45,20.64,125.17,0,145.8"/>
      <path class="cls-2" d="M496.84,743.9c-9.3,19.65-15,107.15,0,122.1"/>
      <path class="cls-2" d="M402.49,727c-6.81,39.73-8.9,96.16,0,132.06"/>
    </g>
  </g>
</svg>
