<?xml version="1.0" encoding="utf-8"?>
<!-- Generator: Adobe Illustrator 22.1.0, SVG Export Plug-In . SVG Version: 6.00 Build 0)  -->
<svg version="1.1" id="Layer_1" xmlns="http://www.w3.org/2000/svg" xmlns:xlink="http://www.w3.org/1999/xlink" x="0px" y="0px"
	 viewBox="0 0 32 32" style="enable-background:new 0 0 32 32;" xml:space="preserve">
<style type="text/css">
	.st0{fill:#FFFFFF;}
	.st1{fill:none;stroke:#000000;stroke-width:0.2708;stroke-miterlimit:10;}
</style>
<rect width="32" height="32"/>
<g id="Layer_4">
	<g>
		<g>
			<ellipse class="st0" cx="9.6" cy="9.6" rx="6.4" ry="7.2"/>
			<ellipse cx="9.6" cy="9.6" rx="2.8" ry="3.2"/>
			<polygon class="st0" points="9.6,9.6 12.6,8.5 12.6,10.8 			"/>
		</g>
		<g>
			<ellipse class="st0" cx="22.4" cy="9.6" rx="6.4" ry="7.2"/>
			<ellipse cx="22.4" cy="9.6" rx="2.8" ry="3.2"/>
			<polygon class="st0" points="22.4,9.6 25.4,8.5 25.4,10.8 			"/>
		</g>
	</g>
	<g>
		<path class="st0" d="M16,17.1c-0.5,0-1.3-0.3-1.9-0.7c-0.4-0.3-1.1-0.8-1.1-1.6c0-1.2,0-2.3,2.4-2.3c0.2,0,0.3,0,0.5,0h0
			c1.3,0,2.2,0.2,2.6,0.7c0.4,0.4,0.4,1,0.4,1.6c0,0.7-0.7,1.3-1.1,1.6C17.3,16.9,16.5,17.1,16,17.1z"/>
		<path d="M15.5,12.5v0.3l0,0c0.2,0,0.3,0,0.5,0h0c1.3,0,2.1,0.2,2.5,0.6c0.3,0.4,0.3,0.9,0.3,1.5c0,0.5-0.4,1-1,1.5
			C17.2,16.7,16.5,17,16,17s-1.2-0.3-1.8-0.7c-0.6-0.4-1-1-1-1.5c0-0.6,0-1.1,0.3-1.5c0.3-0.4,1-0.6,2-0.6L15.5,12.5 M15.5,12.5
			c-2.5,0-2.5,1.2-2.5,2.4c0,1.3,2,2.4,3,2.4s3-1.1,3-2.4s0-2.4-3-2.4C15.8,12.5,15.7,12.5,15.5,12.5z"/>
	</g>
	<path class="st0" d="M5.8,25.8c0,6.1,20.8,5.7,20.8-0.3c0-2.9-5,0-10,0C11.2,25.5,5.8,22.6,5.8,25.8z"/>
	<g>
		<path class="st1" d="M21.9,22.9c0.9,1.2,1.1,7.2,0,8.2"/>
		<path class="st1" d="M17.6,23.8c0.7,0.7,0.9,5.6,0,6.6"/>
		<path class="st1" d="M14.1,24.8c-0.4,0.9-0.7,4.8,0,5.5"/>
		<path class="st1" d="M9.8,24.1c-0.3,1.8-0.4,4.3,0,6"/>
	</g>
</g>
</svg>
